<?xml version="1.0" encoding="utf-8"?>
<!-- Generator: Adobe Illustrator 15.0.0, SVG Export Plug-In . SVG Version: 6.00 Build 0)  -->
<!DOCTYPE svg PUBLIC "-//W3C//DTD SVG 1.1//EN" "http://www.w3.org/Graphics/SVG/1.1/DTD/svg11.dtd">
<svg version="1.1" id="Layer_1" xmlns="http://www.w3.org/2000/svg" xmlns:xlink="http://www.w3.org/1999/xlink" x="0px" y="0px"
	 width="790.56px" height="792px" viewBox="0 0 790.56 792" enable-background="new 0 0 790.56 792" xml:space="preserve">
<g>
	<path fill="#042538" d="M225.243,209.152c-0.017,0.006-0.03,0.013-0.042,0.02c-14.499,7.137-28.692,15.229-42.519,23.573
		c-26.54,16.011-49.435,36.199-70.752,58.667c-7.418,7.815-11.586,13.038-15.312,13.451c-5.27,0.583-8.269-8.29-8.766-23.531
		c-0.323-9.736,2.275-22.07,5.283-31.183c12.776-38.698,46.513-69.867,92.941-79.018c-23.75-5.569-61.791-7.932-90.406-1.061
		c-12.798,3.105-20.798,5.313-23.801,0.853c-2.39-3.547,0.229-9.568,6.018-20.35c15.031-25.419,49.367-42.979,77.94-42.979
		c25.532,0,42.664,8.221,61.025,22.059c-5.019-10.701-7.97-15.42-13.865-24.5c-12.394-19.41-26.676-38.991-47.627-51.957
		c-8.455-8.366-3.981-11.962,3.624-14.206c5.729-1.69,13.338-2.968,17.974-2.968c24.877-0.468,45.407,6.641,61.153,21.43
		c15.078,14.167,24.681,35.988,26.238,58.681C285.604,75.936,337.91,58.6,380.191,71.551c16.49,5.25,24.414,11.15,23.593,15.822
		c-0.753,4.251-8.834,7.288-22.759,11.784c-3.012,1.012-6.257,2.533-9.119,3.875c-9.484,4.449-18.761,9.648-27.739,15.029
		c-15.58,9.336-26.191,18.318-39.721,30.67c28.131-5.555,50.124-0.472,67.566,9.984c23.146,13.878,46.679,42.477,46.679,70.616
		c-0.06,11.873,1.621,20.902-2.603,23.235c-3.433,1.901-8.689-0.783-20.709-11.86c-0.098-0.087-0.179-0.164-0.268-0.251
		c-23.248-22.063-63.177-34.579-87.685-40c17.745,11.798,28.646,27.376,34.923,47.547c7.099,22.784,3.628,56.351-10.829,77.28
		c-3.892,5.634-15.099,22.027-22.33,20.626c-4.168-0.808-6.206-7.579-7.707-21.825c-2.386-22.633-12.215-55.172-23.078-75.15
		c-7.234-13.31-14.737-26.595-22.482-39.623c-11.42,35.731-19.956,72.789-25,110.026c-3.475,25.657-4.049,52.359-3.216,78.238
		c1.106,34.285,8.762,67.885,14.976,101.524c-23.159,4.487-50.945,13.993-72.798,22.729c-2.59-42.323-1.65-85.986,3.747-128.178
		C181.669,330.871,201.191,267.819,225.243,209.152L225.243,209.152z"/>
	<path fill="#937440" d="M243.136,202.994c0,0-19.91,61.597-27.067,114.447l-0.026,0.185c-1.91-1.052-5.354-2.335-10.675-2.186
		C214.07,280.26,226.276,242.147,243.136,202.994L243.136,202.994z"/>
	<path fill="#937440" d="M214.652,329.01c-2.386,21.751-3.539,45.875-2.794,69.017c0.6,18.602,2.348,36.788,4.844,54.832
		c-4.963,0.975-18.174,4.494-21.449,14.776c0,0,10.722-7.308,23.354-1.944c1.165,7.411,2.45,14.813,3.819,22.215
		c-12.428,2.407-24.63,6.199-36.505,10.945c-0.918-15.005-1.939-49.964,3.7-97.551c11.237,1.198,18.846-3.708,18.846-3.708
		c-6.035-6.584-13.155-8.906-17.115-9.719c2.513-18.046,5.997-37.681,10.709-58.477C205.631,329.812,211.564,330.243,214.652,329.01
		L214.652,329.01z"/>
	<g>
		<path fill="#3A9552" d="M267.758,201.592c0,0,11.348,19.076,23.048,40.599c11.7,21.525,22.27,57.225,24.715,80.411
			c13.181-13.3,20.169-43.049,12.488-67.722C320.323,230.204,297.973,203.779,267.758,201.592L267.758,201.592z"/>
		<path fill="#3A9552" d="M234.23,189.605c0,0-19.199,7.137-58.839,31.057c-26.247,15.835-49.299,34.768-73.44,60.204
			c0,0-1.484-45.147,41.124-74.899C185.684,176.218,228.118,185.843,234.23,189.605L234.23,189.605z"/>
		<path fill="#3A9552" d="M234.145,174.206c0,0-27.416-14.176-65.486-20.649c-38.066-6.475-76.311,2.799-76.311,2.799
			s19.561-33.075,62.782-33.075C198.346,123.28,223.58,157.493,234.145,174.206L234.145,174.206z"/>
		<path fill="#3A9552" d="M248.376,157.404c0,0-6.984-7.962-9.081-12.949s-13.793-31.5-24.537-48.036
			c-10.735-16.537-24.796-35.438-37.803-46.288c11.875,0,38.679,1.837,56.84,25.726C251.957,99.743,251.34,134.394,248.376,157.404
			L248.376,157.404z"/>
		<path fill="#3A9552" d="M263.564,165.019c0,0,6.291-4.289,17.205-15.401c10.914-11.111,29.423-27.65,56.142-43.661
			c26.719-16.013,39.729-20.213,39.729-20.213s-23.138-7.088-47.151-0.961C305.479,90.907,274.567,111.995,263.564,165.019
			L263.564,165.019z"/>
		<path fill="#3A9552" d="M268.719,183.48c0,0,19.646-21.174,52.127-21.174c32.482,0,53.348,11.813,68.54,30.625
			c15.192,18.812,15.192,36.399,15.192,36.399S355.42,181.994,268.719,183.48L268.719,183.48z"/>
	</g>
	<path fill="#042538" d="M392.968,547.301c82.248-10.413,146.254-83.144,146.326-139.56c0.047-37.341-23.12-58.016-45.368-59.324
		c-10.927-0.642-18.697,7.909-27.276,12.598c-25.379,13.876-57.622-2.801-54.828-51.098c2.795-48.3,61.816-118.824,145.987-118.824
		c62.675,0,114.981,28.999,150.5,72.383c31.924,38.987,46.036,93.698,46.291,145.576c0.2,39.836-7.771,76.745-22.112,111.229
		c-17.923,43.079-49.732,88.671-86.936,124.117c-74.001,70.514-164.402,102.137-220.983,108.784
		c-56.576,6.65-97.615,1.226-156.462-13.125c-58.847-14.349-85.128-16.447-94.383-16.622c-9.255-0.174-4.806-15.4,26.804-25.728
		c31.605-10.324,86.438-19.424,131.492-15.924c45.054,3.501,88.535,8.926,123.806,3.151
		c-38.415,13.126-65.831,16.273-129.395,15.748s-83.116,9.278-83.116,9.278s39.636,5.948,91.5,10.848
		c51.863,4.899,124.334,2.133,221.375-58.607c97.041-60.739,120.54-118.315,132.065-178.515
		c11.522-60.198-5.244-103.772-19.216-121.272c4.194,18.725,8.558,56.174,0.697,89.25c-7.855,33.072-24.791,75.247-64.078,116.721
		c-39.295,41.475-98.666,66.149-98.666,66.149s46.977-27.476,86.264-74.373c39.291-46.898,57.448-91.699,57.448-138.598
		c0-46.899-26.889-92.923-64.088-111.997c29.164,41.125,31.087,67.199,31.087,96.771c0,13.535-2.041,35.037-12.224,58.751
		c-12.066,28.104-34.961,59.028-70.931,79.474c42.234-42.937,62.373-82.051,62.373-125.1s-26.71-80.675-58.056-83.386
		c16.851,13.124,30.112,35.612,30.112,69.474c0,33.861-32.337,121.559-138.803,160.308c18.85,10.82,49.668,17.314,66.081,18.19
		s27.242,1.313,27.242,1.313s-15.983,24.498-59.987,42.523c-44.004,18.024-82.074,28.175-157.688,18.024
		C232.63,636.087,174,632.659,105.375,670.228c-7.903,4.329-19.697,6.747-24.486,3.896c-4.3-2.564-2.765-9.678,9.191-18.499
		c22.878-16.877,87.22-36.663,145.719-36.663s146.858,33.426,244.3-22.223c0,0-31.257,0.523-76.66-23.976
		c-45.403-24.498-87.471-70.615-151.746-71.224c-28.909-0.274-76.613,17.123-112.875,42.101
		c-25.307,17.427-45.42,32.189-61.773,40.348c-17.115,8.54-28.424,12.074-30.274,13.1c-6.566,3.653-16.412-10.761-6.809-15.75
		c9.603-4.986,27.066-8.923,67.493-37.623c40.427-28.701,91.155-58.712,144.239-58.712c23.227,0,45.08,3.817,68.017,14.906
		C349.198,514.164,378.43,537.359,392.968,547.301L392.968,547.301z"/>
	<path fill-rule="evenodd" clip-rule="evenodd" fill="#157182" d="M96.107,673.93c13.461-0.032,25.451-1.901,37.649,0.047
		c32.137,5.138,56.24,14.699,79.131,20.079c32.299-8.677,79.501-15.35,119.132-12.271c45.054,3.501,88.535,8.926,123.806,3.151
		c-38.415,13.126-65.831,16.273-129.395,15.748s-83.116,9.278-83.116,9.278s39.636,5.948,91.5,10.848
		c51.863,4.899,124.334,2.133,221.375-58.607c97.041-60.739,120.54-118.315,132.065-178.515
		c11.522-60.198-5.244-103.772-19.216-121.272c4.194,18.725,8.558,56.174,0.697,89.25c-7.855,33.072-24.791,75.247-64.078,116.721
		c-39.295,41.475-98.666,66.149-98.666,66.149s46.977-27.476,86.264-74.373c39.291-46.898,57.448-91.699,57.448-138.598
		c0-46.899-26.889-92.923-64.088-111.997c29.164,41.125,31.087,67.199,31.087,96.771c0,13.535-2.041,35.037-12.224,58.751
		c-12.066,28.104-34.961,59.028-70.931,79.474c42.234-42.937,62.373-82.051,62.373-125.1s-26.71-80.675-58.056-83.386
		c16.851,13.124,30.112,35.612,30.112,69.474c0,33.861-32.337,121.559-138.803,160.308c18.85,10.82,49.668,17.314,66.081,18.19
		s27.242,1.313,27.242,1.313s-15.983,24.498-59.987,42.523c-44.004,18.024-82.074,28.175-157.688,18.024
		C232.63,636.087,174,632.659,105.375,670.228C102.606,671.743,99.361,673.028,96.107,673.93L96.107,673.93z"/>
	<path fill-rule="evenodd" clip-rule="evenodd" fill="#F57F9F" d="M43.856,597.632c19.093,10.364,65.597,31.732,85.021,39.631
		c29.807-10.229,69.557-18.302,106.921-18.302c58.499,0,146.858,33.426,244.3-22.223c0,0-31.257,0.523-76.66-23.976
		c-45.403-24.498-87.471-70.615-151.746-71.224c-28.909-0.274-76.613,17.123-112.875,42.101
		c-25.307,17.427-45.42,32.189-61.773,40.348c-17.115,8.54-28.424,12.074-30.274,13.1C45.843,597.604,44.852,597.759,43.856,597.632
		L43.856,597.632z"/>
	<path fill="#F8F0E9" d="M553.616,209.293c40.69,0,79.633,12.776,117.001,48.65c37.369,35.874,58.32,124.597,52.208,164.848
		c-5.24-33.951-19.203-73.325-48.716-102.9c-29.514-29.575-75.261-45.762-100.231-45.237c-24.971,0.525-35.795,20.739-40.775,29.137
		c-4.976,8.4-9.515,14.176-20.169,14.176s-13.358-4.551-13.095-12.338c0.259-7.786,2.182-12.685,2.182-12.685
		s-13.883,8.311-23.835,19.337c-9.957,11.024-19.387,30.098-34.489,30.098c-15.104,0-20.696-34.211,0.957-69.91
		S512.755,208.944,553.616,209.293L553.616,209.293z"/>
</g>
</svg>
